<svg viewBox="0 0 331 65" fill="none" xmlns="http://www.w3.org/2000/svg">
<g clip-path="url(#clip0_79_2675)">
<path d="M83.5882 48L79 44.3333L96.4353 15L101.482 19.125M83.5882 48H95.9765L98.7804 42.5M83.5882 48L101.482 19.125M101.482 19.125L118 48H104.694M104.694 48L100.565 39.2917L98.7804 42.5M104.694 48L98.7804 42.5" stroke="#B06649" stroke-width="2"/>
<path d="M18.96 48.432C15.6 48.432 12.72 47.728 10.32 46.32C7.92 44.912 6.064 42.912 4.752 40.32C3.472 37.696 2.832 34.608 2.832 31.056C2.832 28.4 3.2 26.016 3.936 23.904C4.672 21.76 5.728 19.936 7.104 18.432C8.48 16.896 10.16 15.728 12.144 14.928C14.16 14.128 16.432 13.728 18.96 13.728C20.88 13.728 22.72 14 24.48 14.544C26.272 15.088 27.808 15.856 29.088 16.848C29.6 17.2 29.936 17.6 30.096 18.048C30.256 18.496 30.272 18.928 30.144 19.344C30.048 19.728 29.84 20.064 29.52 20.352C29.232 20.608 28.864 20.752 28.416 20.784C27.968 20.784 27.488 20.608 26.976 20.256C25.856 19.392 24.624 18.768 23.28 18.384C21.968 17.968 20.56 17.76 19.056 17.76C16.592 17.76 14.496 18.288 12.768 19.344C11.072 20.368 9.776 21.872 8.88 23.856C8.016 25.808 7.584 28.208 7.584 31.056C7.584 33.872 8.016 36.288 8.88 38.304C9.776 40.288 11.072 41.808 12.768 42.864C14.496 43.888 16.592 44.4 19.056 44.4C20.56 44.4 21.984 44.192 23.328 43.776C24.704 43.36 25.968 42.72 27.12 41.856C27.632 41.504 28.096 41.344 28.512 41.376C28.96 41.408 29.328 41.552 29.616 41.808C29.904 42.032 30.096 42.352 30.192 42.768C30.32 43.152 30.32 43.552 30.192 43.968C30.064 44.384 29.776 44.752 29.328 45.072C28.016 46.192 26.448 47.04 24.624 47.616C22.832 48.16 20.944 48.432 18.96 48.432ZM43.4786 48.336C42.7746 48.336 42.2306 48.144 41.8466 47.76C41.4626 47.344 41.2706 46.768 41.2706 46.032V16.416C41.2706 15.68 41.4626 15.12 41.8466 14.736C42.2626 14.352 42.8226 14.16 43.5266 14.16H54.9506C58.5986 14.16 61.3986 15.024 63.3506 16.752C65.3346 18.448 66.3266 20.864 66.3266 24C66.3266 26.048 65.8786 27.808 64.9826 29.28C64.0866 30.72 62.7906 31.824 61.0946 32.592C59.3986 33.36 57.3506 33.744 54.9506 33.744L55.4306 33.072H56.4866C57.7666 33.072 58.8706 33.392 59.7986 34.032C60.7586 34.672 61.6066 35.696 62.3426 37.104L66.7586 45.216C67.0466 45.728 67.1746 46.224 67.1426 46.704C67.1106 47.184 66.9346 47.584 66.6146 47.904C66.2946 48.192 65.8306 48.336 65.2226 48.336C64.5826 48.336 64.0706 48.208 63.6866 47.952C63.3026 47.664 62.9666 47.248 62.6786 46.704L57.4946 37.2C56.7906 35.856 55.9906 34.976 55.0946 34.56C54.1986 34.112 52.9986 33.888 51.4946 33.888H45.7346V46.032C45.7346 46.768 45.5426 47.344 45.1586 47.76C44.8066 48.144 44.2466 48.336 43.4786 48.336ZM45.7346 30.432H54.2306C56.7906 30.432 58.7106 29.904 59.9906 28.848C61.2706 27.76 61.9106 26.176 61.9106 24.096C61.9106 22.016 61.2706 20.448 59.9906 19.392C58.7106 18.336 56.7906 17.808 54.2306 17.808H45.7346V30.432ZM132.666 48.336C131.93 48.336 131.354 48.128 130.938 47.712C130.522 47.296 130.314 46.704 130.314 45.936V16.56C130.314 15.792 130.522 15.2 130.938 14.784C131.354 14.368 131.946 14.16 132.714 14.16H149.946C150.586 14.16 151.066 14.32 151.386 14.64C151.706 14.928 151.866 15.36 151.866 15.936C151.866 16.544 151.706 17.008 151.386 17.328C151.066 17.648 150.586 17.808 149.946 17.808H134.778V29.136H148.986C149.594 29.136 150.058 29.296 150.378 29.616C150.698 29.936 150.858 30.368 150.858 30.912C150.858 31.52 150.698 31.984 150.378 32.304C150.058 32.624 149.594 32.784 148.986 32.784H134.778V45.936C134.778 47.536 134.074 48.336 132.666 48.336ZM172.205 48.336C171.469 48.336 170.909 48.144 170.525 47.76C170.141 47.344 169.949 46.768 169.949 46.032V17.952H159.437C158.829 17.952 158.349 17.792 157.997 17.472C157.645 17.12 157.469 16.64 157.469 16.032C157.469 15.424 157.645 14.96 157.997 14.64C158.349 14.32 158.829 14.16 159.437 14.16H184.925C185.565 14.16 186.045 14.32 186.365 14.64C186.717 14.96 186.893 15.424 186.893 16.032C186.893 16.64 186.717 17.12 186.365 17.472C186.045 17.792 185.565 17.952 184.925 17.952H174.413V46.032C174.413 46.768 174.221 47.344 173.837 47.76C173.485 48.144 172.941 48.336 172.205 48.336ZM198.049 48C197.281 48 196.689 47.792 196.273 47.376C195.857 46.96 195.649 46.368 195.649 45.6V16.56C195.649 15.792 195.857 15.2 196.273 14.784C196.689 14.368 197.281 14.16 198.049 14.16H215.713C216.321 14.16 216.785 14.32 217.105 14.64C217.457 14.928 217.633 15.36 217.633 15.936C217.633 16.544 217.457 17.008 217.105 17.328C216.785 17.648 216.321 17.808 215.713 17.808H199.969V28.992H214.705C215.313 28.992 215.777 29.152 216.097 29.472C216.417 29.792 216.577 30.24 216.577 30.816C216.577 31.424 216.417 31.888 216.097 32.208C215.777 32.496 215.313 32.64 214.705 32.64H199.969V44.352H215.713C216.321 44.352 216.785 44.512 217.105 44.832C217.457 45.12 217.633 45.568 217.633 46.176C217.633 46.784 217.457 47.248 217.105 47.568C216.785 47.856 216.321 48 215.713 48H198.049ZM230.974 48C230.206 48 229.614 47.792 229.198 47.376C228.782 46.96 228.574 46.368 228.574 45.6V16.56C228.574 15.792 228.782 15.2 229.198 14.784C229.614 14.368 230.206 14.16 230.974 14.16H240.238C245.774 14.16 250.03 15.616 253.006 18.528C256.014 21.408 257.518 25.584 257.518 31.056C257.518 33.776 257.134 36.192 256.366 38.304C255.598 40.416 254.478 42.192 253.006 43.632C251.534 45.04 249.726 46.128 247.582 46.896C245.47 47.632 243.022 48 240.238 48H230.974ZM233.038 44.208H239.95C242.126 44.208 244.014 43.936 245.614 43.392C247.214 42.848 248.542 42.032 249.598 40.944C250.686 39.856 251.502 38.496 252.046 36.864C252.59 35.2 252.862 33.264 252.862 31.056C252.862 26.672 251.774 23.392 249.598 21.216C247.454 19.04 244.238 17.952 239.95 17.952H233.038V44.208ZM271.633 48C270.865 48 270.273 47.792 269.857 47.376C269.441 46.96 269.233 46.368 269.233 45.6V16.56C269.233 15.792 269.441 15.2 269.857 14.784C270.273 14.368 270.865 14.16 271.633 14.16H283.009C285.345 14.16 287.329 14.512 288.961 15.216C290.625 15.92 291.889 16.928 292.753 18.24C293.617 19.552 294.049 21.136 294.049 22.992C294.049 25.072 293.441 26.816 292.225 28.224C291.009 29.632 289.345 30.576 287.233 31.056V30.336C289.601 30.624 291.457 31.504 292.801 32.976C294.177 34.416 294.865 36.304 294.865 38.64C294.865 41.648 293.873 43.968 291.889 45.6C289.937 47.2 287.169 48 283.585 48H271.633ZM273.553 44.496H283.105C285.601 44.496 287.457 44.016 288.673 43.056C289.889 42.064 290.497 40.56 290.497 38.544C290.497 36.528 289.889 35.04 288.673 34.08C287.457 33.12 285.601 32.64 283.105 32.64H273.553V44.496ZM273.553 29.088H282.337C284.769 29.088 286.593 28.608 287.809 27.648C289.057 26.656 289.681 25.232 289.681 23.376C289.681 21.52 289.057 20.112 287.809 19.152C286.593 18.16 284.769 17.664 282.337 17.664H273.553V29.088ZM316.275 48.336C315.571 48.336 315.027 48.144 314.643 47.76C314.259 47.344 314.067 46.752 314.067 45.984V30.48L315.027 33.456L303.123 16.944C302.803 16.496 302.643 16.032 302.643 15.552C302.675 15.04 302.867 14.624 303.219 14.304C303.571 13.984 304.051 13.824 304.659 13.824C305.139 13.824 305.571 13.936 305.955 14.16C306.339 14.384 306.707 14.752 307.059 15.264L316.947 28.896H315.843L325.731 15.264C326.083 14.72 326.435 14.352 326.787 14.16C327.139 13.936 327.587 13.824 328.131 13.824C328.707 13.824 329.155 13.984 329.475 14.304C329.827 14.592 330.003 14.976 330.003 15.456C330.035 15.936 329.859 16.432 329.475 16.944L317.571 33.456L318.531 30.48V45.984C318.531 47.552 317.779 48.336 316.275 48.336Z" fill="#B06649"/>
</g>
<defs>
<clipPath id="clip0_79_2675">
<rect width="331" height="65" fill="white"/>
</clipPath>
</defs>
</svg>
